<svg width="47" height="32" viewBox="0 0 47 32" fill="none" xmlns="http://www.w3.org/2000/svg">
<path d="M38.9133 19.3352C38.9133 22.5858 37.1 25.5474 34.1312 27.7042C31.1626 29.8609 27.051 31.2013 22.5 31.2013C17.949 31.2013 13.8374 29.8609 10.8688 27.7042C7.89997 25.5474 6.08673 22.5858 6.08673 19.3352C6.08673 16.0845 7.89997 13.123 10.8688 10.9661C13.8374 8.80949 17.949 7.46905 22.5 7.46905C27.051 7.46905 31.1626 8.80949 34.1312 10.9661C37.1 13.123 38.9133 16.0845 38.9133 19.3352Z" stroke="#325D33" stroke-width="0.423461"/>
<ellipse cx="15.7921" cy="18.8557" rx="6.60265" ry="6.42552" fill="#325D33"/>
<path d="M36.7055 17.2563C36.232 15.6833 35.6533 14.8301 35.6533 14.8301L33.9697 19.0427L36.7055 20.749C36.7055 20.749 37.179 18.8294 36.7055 17.2563Z" fill="#325D33"/>
<path d="M35.5988 13.4964C35.5988 19.6826 29.765 24.7493 22.5 24.7493C15.2349 24.7493 9.40118 19.6826 9.40118 13.4964C9.40118 7.31012 15.2349 2.24347 22.5 2.24347C29.765 2.24347 35.5988 7.31012 35.5988 13.4964Z" fill="#FAF7EE" stroke="#325D33" stroke-width="0.423461"/>
<ellipse cx="22.5527" cy="11.5502" rx="13.3105" ry="9.83825" fill="#325D33"/>
<path d="M35.5988 10.0569C35.5988 12.5229 34.1609 14.7777 31.7911 16.4249C29.422 18.0716 26.1378 19.0968 22.5 19.0968C18.8622 19.0968 15.5779 18.0716 13.2089 16.4249C10.839 14.7777 9.40118 12.5229 9.40118 10.0569C9.40118 7.59081 10.839 5.33598 13.2089 3.68879C15.5779 2.04214 18.8622 1.01691 22.5 1.01691C26.1378 1.01691 29.422 2.04214 31.7911 3.68879C34.1609 5.33598 35.5988 7.59081 35.5988 10.0569Z" fill="white" stroke="#325D33" stroke-width="0.423461"/>
<ellipse cx="22.5269" cy="10.1637" rx="12.232" ry="8.45183" fill="#325D33"/>
<path d="M20.5959 2.82964C18.8071 3.06972 13.3094 4.37608 13.919 7.30887C14.5286 10.2417 18.3894 6.6565 20.7275 7.68206C21.8206 8.1615 23.2265 8.75643 23.406 8.79513C25.3203 9.20791 28.7769 11.0612 29.119 7.06196C29.461 3.06275 22.3847 2.58957 20.5959 2.82964Z" fill="#FAF7EE" stroke="white" stroke-width="0.0169384"/>
<path d="M19.9016 9.34745C18.6653 8.95012 15.5373 8.90145 15.4034 10.7605C15.3929 10.9059 15.3985 10.9881 15.4034 11.1338C15.5068 14.1913 18.1998 15.6855 21.138 16.3862C23.8498 17.0329 26.8726 15.8529 28.0826 14.7332C29.2927 13.6134 30.1607 11.8004 29.1085 10.7605C28.0563 9.72064 26.6884 11.1338 25.5047 11.1338C24.3209 11.1338 21.138 9.74478 19.9016 9.34745Z" fill="#FAF7EE" stroke="white" stroke-width="0.0169384"/>
<path d="M31.9699 20.4821C32.3861 19.4518 30.7861 17.8959 30.7861 17.8959L31.9699 17.2827C31.9699 17.2827 34.9687 19.5838 34.4163 21.362C33.7808 23.4076 29.1289 22.5618 29.1289 22.5618V21.362C29.1289 21.362 31.5303 21.5703 31.9699 20.4821Z" fill="#325D33"/>
<path d="M31.5748 18.1889C31.7852 17.6824 32.101 17.8423 32.101 17.8423C32.6271 17.869 33.3707 18.7659 33.8634 19.4687C34.2605 20.0351 34.3896 20.7218 34.3896 20.9618C34.3896 21.2017 34.1265 22.1082 33.916 21.5483C33.7056 20.9885 33.808 20.4217 32.9882 19.7244C32.3115 19.1487 31.3644 18.6954 31.5748 18.1889Z" fill="#FAF7EE"/>
</svg>
