<svg width="41" height="34" viewBox="0 0 41 34" fill="none" xmlns="http://www.w3.org/2000/svg">
<path d="M16.2489 30.1346L13.2686 7.05423C13.2686 7.05423 21.1087 9.21125 25.3045 9.25571C29.8364 9.30373 36.8189 6.83105 36.8189 6.83105L33.9463 30.1346C33.9463 30.1346 28.918 33.7154 25.3045 33.7764C21.5396 33.84 16.2489 30.1346 16.2489 30.1346Z" stroke="#296600" stroke-width="0.446762"/>
<path d="M17.0767 29.4838L14.2959 7.19531C14.2959 7.19531 21.4927 9.12829 25.3101 9.17081C29.4334 9.21674 35.7917 7.19531 35.7917 7.19531L33.1782 29.4838C33.1782 29.4838 28.6034 32.9086 25.3157 32.967C21.8903 33.0278 17.0767 29.4838 17.0767 29.4838Z" fill="#296600"/>
<path d="M25.852 8.97183C20.8181 9.12316 13.1543 6.73182 13.1543 6.73182L13.3731 5.5333C13.3731 5.5333 20.7367 7.71094 25.7077 7.54561C30.0469 7.40129 36.4935 5.21094 36.4935 5.21094L36.9043 6.48139C36.9043 6.48139 30.3646 8.83617 25.852 8.97183Z" stroke="#296600" stroke-width="0.268057"/>
<path d="M25.7863 7.88238C20.8914 8.03377 13.3823 5.55835 13.3823 5.55835L13.4774 4.98801L13.5821 4.40942C13.5821 4.40942 20.8123 6.62103 25.6459 6.45564C29.8652 6.31127 36.1337 4.12012 36.1337 4.12012L36.5331 5.39104C36.5331 5.39104 30.1741 7.74667 25.7863 7.88238Z" stroke="#296600" stroke-width="0.268057"/>
<path d="M25.1771 1.56592C18.2389 1.56594 13.9727 4.21094 13.9727 4.21094C13.9727 4.21094 20.5589 6.32404 25.1771 6.1947C29.5235 6.07298 35.7824 3.92164 35.7824 3.92164C35.7824 3.92164 32.4914 1.5659 25.1771 1.56592Z" stroke="#296600" stroke-width="0.446762"/>
<path d="M16.6306 3.9051C18.0421 3.29344 21.6867 2.51647 22.247 2.57434C22.8074 2.63221 24.49 5.16975 24.4053 5.44252C24.3205 5.71529 15.2191 4.51676 16.6306 3.9051Z" fill="#296600" stroke="#296600" stroke-width="0.178705"/>
<path d="M22.3595 13.8144V22.9121H20.9824V15.1915H20.9291L18.7524 16.613V15.2981L21.0223 13.8144H22.3595ZM27.9878 23.0631C27.2859 23.0602 26.6862 22.8751 26.1887 22.5079C25.6911 22.1406 25.3106 21.6061 25.047 20.9042C24.7834 20.2023 24.6516 19.3568 24.6516 18.3677C24.6516 17.3815 24.7834 16.539 25.047 15.8401C25.3135 15.1412 25.6956 14.6081 26.1931 14.2409C26.6936 13.8736 27.2918 13.69 27.9878 13.69C28.6837 13.69 29.2805 13.8751 29.778 14.2453C30.2755 14.6125 30.6561 15.1456 30.9196 15.8445C31.1862 16.5405 31.3194 17.3815 31.3194 18.3677C31.3194 19.3598 31.1877 20.2068 30.9241 20.9087C30.6605 21.6076 30.28 22.1421 29.7824 22.5123C29.2849 22.8795 28.6867 23.0631 27.9878 23.0631ZM27.9878 21.8771C28.6038 21.8771 29.085 21.5765 29.4315 20.9753C29.781 20.3741 29.9557 19.5049 29.9557 18.3677C29.9557 17.6125 29.8757 16.9743 29.7158 16.4531C29.5588 15.9289 29.3323 15.5321 29.0361 15.2626C28.7429 14.9901 28.3935 14.8539 27.9878 14.8539C27.3747 14.8539 26.8935 15.156 26.544 15.7601C26.1946 16.3643 26.0184 17.2334 26.0154 18.3677C26.0154 19.1258 26.0939 19.767 26.2509 20.2912C26.4108 20.8124 26.6373 21.2078 26.9305 21.4773C27.2237 21.7438 27.5761 21.8771 27.9878 21.8771Z" fill="white"/>
</svg>
