<svg width="1424" height="417" viewBox="0 0 1424 417" fill="none" xmlns="http://www.w3.org/2000/svg">
<g clip-path="url(#clip0_740_1003)">
<rect x="0.204834" width="1423" height="417" rx="30" fill="#A0D05C" fill-opacity="0.4"/>
<path d="M449.266 -23.3919C458.06 -20.5504 466.92 -16.4461 472.7 -9.23471C478.268 -2.2897 477.612 7.54475 480.743 15.8766C483.662 23.6451 491.672 30.1686 490.601 38.3982C489.511 46.7754 479.808 51.049 475.241 58.1559C471.164 64.5006 470.299 72.5973 465.107 78.0679C459.602 83.8687 451.911 86.6146 444.786 90.2464C435.785 94.8344 427.526 102.453 417.423 102.373C407.186 102.292 396.707 97.3858 389.818 89.8128C383.007 82.3252 384.252 70.6838 380.169 61.4212C376.133 52.2637 367.606 45.3108 365.861 35.4566C364.019 25.0461 362.009 11.2514 370.08 4.42289C379.526 -3.56869 395.936 7.32801 406.575 1.01164C415.456 -4.26079 412.177 -20.7671 421.144 -25.8927C429.418 -30.6224 440.197 -26.3221 449.266 -23.3919Z" fill="url(#paint0_radial_740_1003)"/>
<g filter="url(#filter0_f_740_1003)">
<path d="M460.769 307.504C469.943 312.063 471.437 325.438 480.11 330.891C487.483 335.526 498.183 330.846 505.472 335.61C513.083 340.584 519.074 348.732 521.002 357.618C522.928 366.498 518.965 375.48 515.984 384.064C513.2 392.081 509.65 399.791 504.12 406.23C498.678 412.566 492.08 418.048 484.265 420.995C476.678 423.855 468.411 423.069 460.309 422.748C452.413 422.436 444.175 422.81 437.182 419.131C430.243 415.48 427.051 407.508 421.272 402.21C414.378 395.889 401.77 393.917 399.726 384.79C397.683 375.662 407.722 368.268 411.787 359.844C415.057 353.069 419.146 346.924 421.455 339.765C425.083 328.514 420.134 313.127 429.273 305.628C437.506 298.871 451.231 302.764 460.769 307.504Z" fill="url(#paint1_radial_740_1003)"/>
</g>
<path d="M236.888 164.261C246.587 165.723 257.594 167.828 263.671 175.525C269.822 183.315 265.752 195.012 268.661 204.502C271.439 213.562 281.02 220.56 280.376 230.015C279.735 239.428 270.077 245.414 265.322 253.563C260.397 262 259.791 273.599 251.724 279.11C243.678 284.605 232.629 280.645 223.052 282.437C212.672 284.38 202.159 294.912 192.735 290.148C182.783 285.117 186.407 268.414 178.938 260.135C172.001 252.446 156.316 254.656 152.158 245.172C148.116 235.953 158.139 226.27 159.733 216.331C161.244 206.908 157.703 196.938 161.311 188.102C165.09 178.85 171.271 169.425 180.478 165.536C189.734 161.627 200.137 167.689 210.183 167.461C219.26 167.256 227.911 162.907 236.888 164.261Z" fill="url(#paint2_radial_740_1003)"/>
<path d="M799.205 147.051C807.675 147.051 813.499 142.986 813.173 133C813.499 142.986 818.264 147.051 826.205 147.051C818.264 147.051 813.234 152.048 813.173 160C813.173 152.187 807.411 147.051 799.205 147.051Z" fill="#DEDFB2" stroke="black" stroke-width="0.5"/>
<path d="M98.2048 380.051C89.7342 380.051 83.9107 375.986 84.2365 366C83.9107 375.986 79.146 380.051 71.2048 380.051C79.146 380.051 84.1754 385.048 84.2365 393C84.2365 385.187 89.999 380.051 98.2048 380.051Z" fill="#DEDFB2" stroke="black" stroke-width="0.5"/>
<path d="M814.205 120.623C830.205 120.623 841.205 112.342 840.589 92C841.205 112.342 850.205 120.623 865.205 120.623C850.205 120.623 840.705 130.801 840.589 147C840.589 131.085 829.705 120.623 814.205 120.623Z" fill="#A0D05C" stroke="black" stroke-width="0.75"/>
<path d="M83.2048 353.623C67.2048 353.623 56.2048 345.342 56.8202 325C56.2048 345.342 47.2048 353.623 32.2048 353.623C47.2048 353.623 56.7048 363.801 56.8202 380C56.8202 364.085 67.7048 353.623 83.2048 353.623Z" fill="#A0D05C" stroke="black" stroke-width="0.75"/>
</g>
<defs>
<filter id="filter0_f_740_1003" x="391.455" y="294" width="138.055" height="137.094" filterUnits="userSpaceOnUse" color-interpolation-filters="sRGB">
<feFlood flood-opacity="0" result="BackgroundImageFix"/>
<feBlend mode="normal" in="SourceGraphic" in2="BackgroundImageFix" result="shape"/>
<feGaussianBlur stdDeviation="4" result="effect1_foregroundBlur_740_1003"/>
</filter>
<radialGradient id="paint0_radial_740_1003" cx="0" cy="0" r="1" gradientUnits="userSpaceOnUse" gradientTransform="translate(427.452 37.1868) rotate(90) scale(65.1868 63.247)">
<stop stop-color="#A0D05C" stop-opacity="0.5"/>
<stop offset="1" stop-color="#A0D05C" stop-opacity="0"/>
</radialGradient>
<radialGradient id="paint1_radial_740_1003" cx="0" cy="0" r="1" gradientUnits="userSpaceOnUse" gradientTransform="translate(460.482 362.547) rotate(90) scale(60.5472 61.0274)">
<stop stop-color="#986903" stop-opacity="0.25"/>
<stop offset="1" stop-color="#986903" stop-opacity="0"/>
</radialGradient>
<radialGradient id="paint2_radial_740_1003" cx="0" cy="0" r="1" gradientUnits="userSpaceOnUse" gradientTransform="translate(215.806 227.687) rotate(90) scale(63.6865 64.6011)">
<stop stop-color="#0C713D" stop-opacity="0.25"/>
<stop offset="1" stop-color="#0C713D" stop-opacity="0"/>
</radialGradient>
<clipPath id="clip0_740_1003">
<rect x="0.204834" width="1423" height="417" rx="30" fill="white"/>
</clipPath>
</defs>
</svg>
